<mxfile host="Electron" modified="2023-05-28T22:29:24.961Z" agent="Mozilla/5.0 (Windows NT 10.0; Win64; x64) AppleWebKit/537.36 (KHTML, like Gecko) draw.io/21.2.8 Chrome/112.0.5615.165 Electron/24.2.0 Safari/537.36" etag="gmU56PdmyTtwsW_av5cI" version="21.2.8" type="device">
  <diagram name="Page-1" id="kYrhAJD9tsFNA8A4UrEn">
    <mxGraphModel dx="1098" dy="838" grid="1" gridSize="10" guides="1" tooltips="1" connect="1" arrows="1" fold="1" page="1" pageScale="1" pageWidth="850" pageHeight="1100" math="0" shadow="0">
      <root>
        <mxCell id="0" />
        <mxCell id="1" parent="0" />
        <mxCell id="7q4HSbBON3UZSoCQvpU2-3" style="edgeStyle=orthogonalEdgeStyle;rounded=0;orthogonalLoop=1;jettySize=auto;html=1;" edge="1" parent="1" source="7q4HSbBON3UZSoCQvpU2-1" target="7q4HSbBON3UZSoCQvpU2-2">
          <mxGeometry relative="1" as="geometry" />
        </mxCell>
        <mxCell id="7q4HSbBON3UZSoCQvpU2-1" value="Client" style="sketch=0;outlineConnect=0;fontColor=#232F3E;gradientColor=none;fillColor=#232F3D;strokeColor=none;dashed=0;verticalLabelPosition=top;verticalAlign=bottom;align=center;html=1;fontSize=18;fontStyle=0;aspect=fixed;pointerEvents=1;shape=mxgraph.aws4.client;labelPosition=center;" vertex="1" parent="1">
          <mxGeometry x="444" y="70" width="78" height="76" as="geometry" />
        </mxCell>
        <mxCell id="7q4HSbBON3UZSoCQvpU2-2" value="&lt;font style=&quot;font-size: 18px;&quot;&gt;Lambda Function&lt;/font&gt;&lt;br&gt;https://90asfd898rjkqwenmlkasdc90.lambda-url.sa-east-1.on.aws/" style="sketch=0;points=[[0,0,0],[0.25,0,0],[0.5,0,0],[0.75,0,0],[1,0,0],[0,1,0],[0.25,1,0],[0.5,1,0],[0.75,1,0],[1,1,0],[0,0.25,0],[0,0.5,0],[0,0.75,0],[1,0.25,0],[1,0.5,0],[1,0.75,0]];outlineConnect=0;fontColor=#232F3E;gradientColor=#F78E04;gradientDirection=north;fillColor=#D05C17;strokeColor=#ffffff;dashed=0;verticalLabelPosition=bottom;verticalAlign=top;align=center;html=1;fontSize=12;fontStyle=0;aspect=fixed;shape=mxgraph.aws4.resourceIcon;resIcon=mxgraph.aws4.lambda;" vertex="1" parent="1">
          <mxGeometry x="444" y="430" width="78" height="78" as="geometry" />
        </mxCell>
        <mxCell id="7q4HSbBON3UZSoCQvpU2-4" value="HTTPS request" style="text;html=1;align=center;verticalAlign=middle;resizable=0;points=[];autosize=1;strokeColor=none;fillColor=none;" vertex="1" parent="1">
          <mxGeometry x="480" y="250" width="110" height="30" as="geometry" />
        </mxCell>
      </root>
    </mxGraphModel>
  </diagram>
</mxfile>
